<?xml version="1.0" standalone="no"?><!DOCTYPE svg PUBLIC "-//W3C//DTD SVG 1.1//EN" "http://www.w3.org/Graphics/SVG/1.1/DTD/svg11.dtd"><svg t="1701255516782" class="icon" viewBox="0 0 1025 1024" version="1.1" xmlns="http://www.w3.org/2000/svg" p-id="1552" xmlns:xlink="http://www.w3.org/1999/xlink" width="200.1953125" height="200"><path d="M1012.196184 495.862435L27.283818 2.04273C23.280068 0.040855 18.683926-0.428973 14.332911 0.633246 4.323536 3.104949-1.917004 13.236889 0.554699 23.358615l101.493028 414.694568c1.532047 6.240539 6.117976 11.306509 12.246165 13.308384l173.907798 59.698777-173.785234 59.688564c-6.117976 2.124439-10.714118 7.067845-12.133815 13.308384L0.554699 999.334038c-1.062219 4.361228-0.592392 8.947156 1.409484 12.828343 4.596142 9.304634 15.892438 13.07347 25.319635 8.477329l984.912366-490.990525c3.656486-1.766961 6.598017-4.820842 8.477329-8.354765 4.585928-9.427198 0.827306-20.723493-8.477329-25.431985zM116.643031 881.345967l59.218736-242.073689 347.570468-119.274991c2.706617-0.939656 4.95362-3.053881 5.883062-5.883062 1.654611-4.943406-0.939656-10.24429-5.883062-12.011251l-347.570468-119.152426-58.983822-241.134035 739.417104 370.775879L116.643031 881.345967z m0 0" fill="#2C2C2C" p-id="1553"></path></svg>