<?xml version="1.0" standalone="no"?><!DOCTYPE svg PUBLIC "-//W3C//DTD SVG 1.1//EN" "http://www.w3.org/Graphics/SVG/1.1/DTD/svg11.dtd"><svg t="1701255808061" class="icon" viewBox="0 0 1024 1024" version="1.1" xmlns="http://www.w3.org/2000/svg" p-id="1551" xmlns:xlink="http://www.w3.org/1999/xlink" width="200" height="200"><path d="M1012.67456 412.28288c-5.9904-31.77472-25.28256-52.29568-49.152-52.29568h-5.19168c-69.07904 0-125.25568-56.48384-125.25568-125.92128 0-22.51776 10.81344-47.79008 10.89536-47.99488 12.38016-28.01664 2.8672-62.37184-22.12864-79.89248l-1.50528-1.0752-126.94528-70.87104-1.5872-0.7168A66.64192 66.64192 0 0 0 664.89344 28.06784c-19.61984 0-38.94272 7.936-51.65056 21.18656-13.9264 14.42816-61.97248 55.67488-98.90816 55.67488-37.25312 0-85.6064-42.0352-99.57376-56.77056-12.78976-13.50656-32.23552-21.59616-52.09088-21.59616-9.39008 0-18.26816 1.792-26.40896 5.24288l-1.6384 0.7168-131.4304 72.58112-1.536 1.0752c-25.06752 17.50016-34.6624 51.83488-22.30272 79.8208 0.12288 0.256 10.94656 25.37472 10.94656 48.09728 0 69.40672-56.18688 125.9008-125.26592 125.9008h-5.21216c-23.86944 0-43.1616 20.52096-49.12128 52.29568-0.4608 2.32448-10.7008 57.55904-10.7008 100.78208 0 43.18208 10.22976 98.41664 10.7008 100.77184 5.98016 31.75424 25.27232 52.29568 49.12128 52.29568h5.21216c69.07904 0 125.26592 56.46336 125.26592 125.9008 0 22.55872-10.82368 47.79008-10.9056 48.0256-12.38016 27.98592-2.88768 62.35136 22.07744 79.89248l1.4848 1.024 124.53888 70.02112 1.55648 0.7168c8.2944 3.6352 17.29536 5.49888 26.83904 5.49888 19.90656 0 39.3728-8.26368 52.03968-22.12864 17.67424-19.32288 65.66912-59.19744 101.10976-59.19744 38.37952 0 87.57248 44.71808 101.77536 60.37504 12.68736 14.06976 32.28672 22.48704 52.39808 22.48704 9.35936 0 18.21696-1.792 26.34752-5.31456l1.61792-0.69632 129.06496-71.74144 1.536-1.04448c25.01632-17.55136 34.56-51.85536 22.25152-79.79008-0.12288-0.256-10.97728-25.71264-10.97728-48.09728 0-69.45792 56.20736-125.94176 125.25568-125.94176h5.10976c23.92064 0 43.24352-20.52096 49.22368-52.2752 0.1024-0.5632 10.69056-56.48384 10.69056-100.80256 0.03072-43.4176-10.19904-98.43712-10.65984-100.77184zM356.54656 924.50816l-108.89216-61.22496c4.78208-12.40064 14.58176-41.3184 14.58176-71.24992 0-103.87456-79.5136-189.72672-181.90336-197.632-2.5088-14.63296-8.3968-52.19328-8.3968-81.3568 0-29.09184 5.888-66.67264 8.36608-81.33632 102.42048-7.8848 181.90336-93.76768 181.90336-197.632 0-29.82912-9.71776-58.66496-14.49984-71.07584l115.89632-64.01024h0.02048c4.16768 4.29056 20.89984 20.98176 43.9808 37.50912 37.71392 27.0336 73.6256 40.72448 106.73152 40.72448 32.79872 0 68.44416-13.42464 105.91232-39.936a343.375872 343.375872 0 0 0 43.7248-36.79232h0.03072l111.7184 62.42304c-4.78208 12.38016-14.56128 41.29792-14.56128 71.14752 0 103.87456 79.5136 189.75744 181.90336 197.632 2.5088 14.68416 8.3968 52.34688 8.3968 81.3568 0 29.1328-5.888 66.69312-8.36608 81.3568-102.41024 7.8848-181.90336 93.76768-181.90336 197.632 0 29.85984 9.728 58.71616 14.53056 71.12704l-113.16224 62.86336c-4.864-5.21216-21.34016-22.17984-44.1344-39.2192-38.4512-28.68224-75.24352-43.24352-109.37344-43.24352-33.82272 0-70.35904 14.27456-108.55424 42.4448a354.461696 354.461696 0 0 0-43.95008 38.48192z m334.17216-412.11904c0-100.46464-81.3056-182.21056-181.26848-182.21056-99.93216 0-181.23776 81.74592-181.23776 182.21056 0 100.47488 81.3056 182.21056 181.23776 182.21056 99.96288 0 181.26848-81.73568 181.26848-182.21056zM509.46048 402.4832C569.76384 402.4832 618.81344 451.7888 618.81344 512.38912c0 60.61056-49.0496 109.91616-109.35296 109.91616-60.27264 0-109.312-49.29536-109.312-109.91616-0.01024-60.60032 49.02912-109.90592 109.312-109.90592z m0 0" fill="#2C2C2C" p-id="1552"></path></svg>